<?xml version="1.0" encoding="utf-8"?>
<!-- Generator: Adobe Illustrator 19.0.0, SVG Export Plug-In . SVG Version: 6.00 Build 0)  -->
<svg version="1.1" id="Layer_1" xmlns="http://www.w3.org/2000/svg" xmlns:xlink="http://www.w3.org/1999/xlink" x="0px" y="0px"
	 viewBox="0 0 612 792" style="enable-background:new 0 0 612 792;" xml:space="preserve">
<style type="text/css">
	.st0{fill:#ECF0F2;}
	.st1{fill:#F5F7F7;}
	.st2{fill:#E5E5E5;}
	.st3{fill:#E2E2E2;}
	.st4{fill:#C4E0EC;}
	.st5{fill:#3A5769;}
	.st6{fill:#74A1D1;}
	.st7{fill:#517B9B;}
	.st8{fill:#92BDE5;}
	.st9{fill:#2C4450;}
	.st10{fill:none;stroke:#12426D;stroke-width:5.142;stroke-linecap:round;stroke-miterlimit:10;}
	.st11{fill:#12426D;}
	.st12{fill:#678291;}
	.st13{fill:#536B76;}
	.st14{fill:#A4B5C1;}
	.st15{fill:#C1CCD3;}
	.st16{fill:#5B93AF;}
	.st17{fill:#708A9E;}
	.st18{fill:#57B4D8;}
	.st19{fill:#437D93;}
	.st20{fill:#DDE4E8;}
	.st21{fill:#EEF2F3;}
	.st22{fill:#7BD1ED;}
	.st23{fill:#536976;}
	.st24{fill:#BBC6CE;}
	.st25{fill:#8FA0AB;}
	.st26{fill:#7A8991;}
	.st27{fill:none;stroke:#12426D;stroke-width:3.2455;stroke-linecap:round;stroke-miterlimit:10;}
	.st28{fill:#FFD56C;}
	.st29{fill:#E2B34A;}
	.st30{fill:#FFE19F;}
	.st31{fill:#FDD9AF;}
	.st32{fill:#78A567;}
	.st33{fill:#60844F;}
	.st34{fill:#C2E0B0;}
	.st35{fill:#7D95A5;}
	.st36{fill:#9AB3C0;}
	.st37{fill:#BACED6;}
	.st38{fill:#90C67D;}
	.st39{fill:#ABD69A;}
	.st40{fill:#FBBB9A;}
	.st41{fill:#FFECD8;}
</style>
<g id="Background_2">
	<g id="XMLID_175_">
		<polygon id="XMLID_274_" class="st0" points="120.8,610.8 109.1,610.8 94.1,620.6 84.7,632.4 84.7,649.7 94.1,669.5 89.1,676.5 
			84.7,697.4 188.2,697.4 175.1,687.4 150.4,671.2 143.9,663.3 148.7,654.1 150.4,643.6 147.5,630.2 136.4,615.4 		"/>
	</g>
	<g id="XMLID_173_">
		<path id="XMLID_272_" class="st0" d="M94.1,669.5L86.9,682l-2.2,15.3h103.6l-9.8-6.4l-34.6-27.6
			C143.9,663.3,133.6,689.7,94.1,669.5z"/>
	</g>
	<g id="XMLID_171_">
		<path id="XMLID_270_" class="st1" d="M94.1,666.7c0,0,3.6-16.8,23.4-21.7c0,0,28.5,4.9,31.3-8.9c2.8-13.8-25.1-24.5-25.1-24.5
			l-14.6-0.8l-14.9,6l-6.1,11.4l-3.4,13.4l2.9,15.5L94.1,666.7z"/>
	</g>
	<g id="XMLID_170_">
		<polygon id="XMLID_268_" class="st2" points="116.8,676.9 131,699.8 188.2,699.8 143.9,663.3 137.8,669.5 126.7,675.2 		"/>
	</g>
	<g id="XMLID_169_">
		<path id="XMLID_266_" class="st3" d="M91,624.5c0,0,19.5,2.8,26.6,17l9.9-4.7l5.2-22.4l-15.8-3.8l-7.7,0.1L91,624.5z"/>
	</g>
	<g id="XMLID_160_">
		<polygon id="XMLID_264_" class="st1" points="97.3,690.1 154.5,684.7 154.5,691 		"/>
	</g>
	<g id="XMLID_322_">
		<g id="XMLID_148_">
			<path id="XMLID_229_" class="st4" d="M117.5,678.9c-19.4,0-35.3-15.8-35.3-35.3s15.8-35.3,35.3-35.3c19.4,0,35.3,15.8,35.3,35.3
				S137,678.9,117.5,678.9z M117.5,613.2c-16.8,0-30.5,13.7-30.5,30.5s13.7,30.5,30.5,30.5s30.5-13.7,30.5-30.5
				S134.3,613.2,117.5,613.2z"/>
		</g>
		<g id="XMLID_147_">
			<path id="XMLID_228_" class="st4" d="M84.7,702.2c-1.3,0-2.4-1.1-2.4-2.4c0-30.9,14.2-32.6,14.8-32.6c1.3-0.1,2.5,0.9,2.6,2.2
				c0.1,1.3-0.8,2.5-2.1,2.6c-0.3,0-10.5,2-10.5,27.9C87,701.1,86,702.2,84.7,702.2z"/>
		</g>
		<g id="XMLID_146_">
			<path id="XMLID_227_" class="st4" d="M190.7,702.2c-0.5,0-1-0.1-1.4-0.4L141,667.1c-1.1-0.8-1.3-2.3-0.5-3.3s2.3-1.3,3.3-0.5
				l48.3,34.7c1.1,0.8,1.3,2.3,0.5,3.3C192.2,701.8,191.5,702.2,190.7,702.2z"/>
		</g>
		<g id="XMLID_145_">
			<circle id="XMLID_254_" class="st4" cx="117.5" cy="643.6" r="13.4"/>
		</g>
		<g id="XMLID_144_">
			<path id="XMLID_226_" class="st4" d="M157.1,692.6h-63c-0.9,0-1.6-0.7-1.6-1.6s0.7-1.6,1.6-1.6h63c0.9,0,1.6,0.7,1.6,1.6
				S158,692.6,157.1,692.6z"/>
		</g>
	</g>
</g>
<g id="Background_1">
	<g id="XMLID_174_">
		<polygon id="XMLID_339_" class="st0" points="520.3,699.9 280.7,699.9 290.3,651.7 341,614.4 350.9,516 470.5,516 496.1,534.7 
			496.1,605.1 494,613.4 492.9,618.8 480.8,618.4 475.5,620.2 469.1,623.6 464.8,630.1 464.8,682 494.3,682 506.1,683 516.7,689 		
			"/>
	</g>
	<g id="XMLID_172_">
		<polygon id="XMLID_337_" class="st3" points="416.3,587.1 418,578.9 412.6,568.3 402.9,564.3 393.1,568.3 388.7,576.1 
			391.3,588.9 399.6,594.8 406.9,594.8 		"/>
	</g>
	<g id="XMLID_168_">
		<polygon id="XMLID_335_" class="st0" points="520.3,699.9 516.7,689 506.1,683 494.3,682 282.9,682 280.7,699.9 		"/>
	</g>
	<g id="XMLID_167_">
		<path id="XMLID_333_" class="st1" d="M478.7,680.4c0,0,0.9,0.1,2.4,0.5c4.5,1.2,14,5.4,15.6,18.9h23.7l-3.6-10.7l-10.6-6.1
			l-14.3-1.1"/>
	</g>
	<g id="XMLID_166_">
		<circle id="XMLID_331_" class="st1" cx="402.7" cy="579.5" r="5.5"/>
	</g>
	<g id="XMLID_165_">
		<polygon id="XMLID_329_" class="st1" points="433.3,538.9 433.3,601.3 478.5,601.3 478.5,553.3 472.1,542.6 466.2,538.9 		"/>
	</g>
	<g id="XMLID_164_">
		<path id="XMLID_326_" class="st3" d="M388.7,680.4c0,0,59.8-2.7,76.1-50.2l-0.7,19.7l0.7,32.2L388.7,680.4z"/>
	</g>
	<g id="XMLID_163_">
		<path id="XMLID_324_" class="st1" d="M418.1,516c0,0,23.8,5.7,28.5,22.8l22.1,1.6l7.6,6.8l2.2,6l-1.7,36.8c0,0,16.7-4.3,19.3,10.7
			v-66.1L470.5,516H418.1z"/>
	</g>
	<g id="XMLID_162_">
		<polygon id="XMLID_321_" class="st1" points="333.2,682 463.7,671.2 463.7,682 		"/>
	</g>
	<g id="XMLID_161_">
		<polygon id="XMLID_319_" class="st0" points="442.7,540.5 455.9,599.2 433.3,599.2 433.3,538.9 		"/>
	</g>
	<g id="XMLID_159_">
		<path id="XMLID_317_" class="st3" d="M346.6,559.1c0,0,6.1,110.5,61.6,116.7l-61.6,5.7l-63.7,0.5l7.4-30.3l50.7-37.3L346.6,559.1z
			"/>
	</g>
	<g id="XMLID_328_">
		<g id="XMLID_158_">
			<path id="XMLID_246_" class="st4" d="M281.5,702.3c-0.1,0-0.3,0-0.4,0c-1.3-0.2-2.2-1.4-2-2.8l7.9-47.8l52.4-38.6l10.1-99.5
				h122.5l27.2,19.9v61.2c0.4,2.6,2.3,19-4.2,25.1c-1.5,1.4-4.2,3-8.3,2.1c-5.9-1.2-11.1-0.2-14.7,2.8c-3.1,2.6-4.9,6.5-4.9,11.1
				v46.3c0,1.3-1.1,2.4-2.4,2.4s-2.4-1.1-2.4-2.4v-46.3c0-6,2.3-11.3,6.6-14.8c4.7-3.9,11.3-5.2,18.7-3.8c2.3,0.5,3.4-0.3,4.1-0.9
				c4.1-3.9,3.3-16.9,2.7-21.2l0-0.3v-59l-24-17.5H354l-9.9,97.3l-52.6,38.7l-7.6,45.9C283.7,701.5,282.7,702.3,281.5,702.3z"/>
		</g>
		<g id="XMLID_157_">
			<path id="XMLID_245_" class="st4" d="M521.1,702.3c-1.3,0-2.4-1.1-2.4-2.4c0-4.5-1.3-7.9-4.1-10.5c-6.1-5.7-16.9-5-17-4.9l-0.2,0
				h-163c-1.3,0-2.4-1.1-2.4-2.4s1.1-2.4,2.4-2.4h162.9c1.3-0.1,13.2-0.6,20.5,6.2c3.7,3.5,5.6,8.2,5.6,14
				C523.5,701.2,522.5,702.3,521.1,702.3z"/>
		</g>
		<g id="XMLID_156_">
			<path id="XMLID_242_" class="st4" d="M481.9,603.2h-50.1v-66.7H463c15,0,18.9,13.4,18.9,20.5V603.2z M436.5,598.4h40.6V557
				c0-0.6-0.2-15.8-14.2-15.8h-26.4V598.4z"/>
		</g>
		<g id="XMLID_155_">
			<path id="XMLID_239_" class="st4" d="M403.7,597.5c-9.7,0-17.6-7.9-17.6-17.6s7.9-17.6,17.6-17.6s17.6,7.9,17.6,17.6
				S413.4,597.5,403.7,597.5z M403.7,567.1c-7.1,0-12.8,5.8-12.8,12.8s5.8,12.8,12.8,12.8s12.8-5.8,12.8-12.8
				S410.8,567.1,403.7,567.1z"/>
		</g>
		<g id="XMLID_154_">
			<path id="XMLID_238_" class="st4" d="M418.9,672.9h-53.6c-0.9,0-1.6-0.7-1.6-1.6s0.7-1.6,1.6-1.6h53.6c0.9,0,1.6,0.7,1.6,1.6
				S419.8,672.9,418.9,672.9z"/>
		</g>
		<g id="XMLID_153_">
			<path id="XMLID_237_" class="st4" d="M445.3,672.9h-17.4c-0.9,0-1.6-0.7-1.6-1.6s0.7-1.6,1.6-1.6h17.4c0.9,0,1.6,0.7,1.6,1.6
				S446.2,672.9,445.3,672.9z"/>
		</g>
		<g id="XMLID_152_">
			<path id="XMLID_235_" class="st4" d="M469.9,592.6h-26.3c-0.9,0-1.6-0.7-1.6-1.6s0.7-1.6,1.6-1.6h26.3c0.9,0,1.6,0.7,1.6,1.6
				S470.8,592.6,469.9,592.6z"/>
		</g>
		<g id="XMLID_151_">
			<path id="XMLID_234_" class="st4" d="M469.9,581.6h-26.3c-0.9,0-1.6-0.7-1.6-1.6s0.7-1.6,1.6-1.6h26.3c0.9,0,1.6,0.7,1.6,1.6
				S470.8,581.6,469.9,581.6z"/>
		</g>
		<g id="XMLID_150_">
			<path id="XMLID_232_" class="st4" d="M469.9,569.9h-26.3c-0.9,0-1.6-0.7-1.6-1.6s0.7-1.6,1.6-1.6h26.3c0.9,0,1.6,0.7,1.6,1.6
				S470.8,569.9,469.9,569.9z"/>
		</g>
		<g id="XMLID_149_">
			<circle id="XMLID_249_" class="st4" cx="464.6" cy="553.8" r="5.3"/>
		</g>
	</g>
</g>
<g id="XMLID_104_">
	<polygon id="XMLID_136_" class="st5" points="272.1,404.8 265,414.7 263.1,421.7 275.2,430.4 289.8,434.4 300.7,435.2 315.7,428.7 
		300.7,419.4 293.2,411 289.8,403.9 	"/>
	<path id="XMLID_115_" class="st6" d="M263.1,331l28.7-3.3l15.6,1.6l4.1,3.3l-2.6,21.7l-15,39.5l-4.2,10.1l-17.6,0.9l2.5-30.2
		l1.5-13.3l-15.7-0.1l-16.9-7.2C243.6,354,232.7,337.3,263.1,331z"/>
	<polygon id="XMLID_109_" class="st7" points="271.8,387.8 272.1,404.8 289.8,403.9 296.2,387.8 	"/>
	<path id="XMLID_108_" class="st7" d="M241.8,346.8c0,0,19.8,8.2,52.2,2.7l-4.6,7.1l-18.6,4.8l-10.3-0.1l-16.9-7.2L241.8,346.8z"/>
	<path id="XMLID_107_" class="st7" d="M293.2,354c0,0-12.8,13.3-10.1,33.8l-9.5-0.5l2.9-28.1L293.2,354z"/>
	<path id="XMLID_129_" class="st8" d="M265,330.8l23.2-2.8l14.5,0.7l8.8,4l-1.4,16.4c1.3-19.9-63.8-11.1-63.8-11.1
		S252,332.3,265,330.8z"/>
	<path id="XMLID_219_" class="st9" d="M265,414.7c0,0,15.7,19.7,43,9.2l7.6,4.7l-1.5,3.4c0,0-21.7,13.1-46-4.5l-5.1-5.9l1.9-6"/>
	<path id="XMLID_44_" class="st10" d="M287.2,341.1"/>
	<g id="XMLID_43_">
		<path id="XMLID_218_" class="st11" d="M267.9,408.3l0-2.8c0-0.8,0.3-19.4,6-46c0.3-1.4,1.7-2.3,3.1-2c1.4,0.3,2.3,1.7,2,3.1
			c-4.4,20.2-5.5,36-5.8,42.2l15-1.3c10.4-19,22.3-54.3,20.7-66c-0.1-0.6-0.3-1.5-1.6-2.4c-7-5.1-30.3-2.2-38.6-0.6
			c-1.4,0.3-2.7-0.7-3-2.1c-0.3-1.4,0.7-2.7,2.1-3c3.3-0.6,32.5-5.7,42.6,1.5c2.1,1.5,3.3,3.5,3.7,5.8c1.9,13.4-10.7,50.5-21.9,70.4
			l-0.7,1.2L267.9,408.3z"/>
	</g>
	<g id="XMLID_42_">
		<path id="XMLID_217_" class="st11" d="M263.8,363.3c-14.4,0-21.6-7-22-7.4c-1-1-1-2.6,0-3.6c1-1,2.6-1,3.6,0
			c0.6,0.6,15.5,14.6,47.3-2.6c1.2-0.7,2.8-0.2,3.5,1s0.2,2.8-1,3.5C282.3,361,271.9,363.3,263.8,363.3z"/>
	</g>
	<g id="XMLID_35_">
		<path id="XMLID_216_" class="st11" d="M265.4,426.5c-1.2,0-2.2-0.8-2.5-2c-2.5-10.1,5.2-20.1,5.5-20.6c0.9-1.1,2.5-1.3,3.6-0.5
			c1.1,0.9,1.3,2.5,0.5,3.6h0c-0.1,0.1-6.5,8.5-4.6,16.2c0.3,1.4-0.5,2.8-1.9,3.1C265.8,426.5,265.6,426.5,265.4,426.5z"/>
	</g>
	<g id="XMLID_34_">
		<path id="XMLID_215_" class="st11" d="M315.7,430.2c-0.3,0-0.6,0-0.8-0.1c-22.7-7.8-27.4-24.8-27.5-25.5c-0.4-1.4,0.5-2.8,1.8-3.1
			c1.4-0.3,2.8,0.5,3.1,1.8c0.2,0.6,4.3,15.1,24.2,22c1.3,0.5,2.1,1.9,1.6,3.3C317.7,429.5,316.7,430.2,315.7,430.2z"/>
	</g>
	<g id="XMLID_12_">
		<path id="XMLID_214_" class="st11" d="M271.8,389.5c-0.9,0-1.6-0.7-1.6-1.6c0-0.9,0.7-1.7,1.6-1.7l26.1-1.1c0.9,0,1.7,0.7,1.7,1.6
			c0,0.9-0.7,1.7-1.6,1.7L271.8,389.5C271.9,389.5,271.8,389.5,271.8,389.5z"/>
	</g>
</g>
<g id="Gear_3">
	<g id="XMLID_138_">
		<polygon class="st12" points="172.7,277.3 168.3,269.4 156.1,269.7 153,277.1 145.7,280.3 138.1,277.8 131.5,284.1 133.7,294.8 
			130.7,300.5 123.2,304.6 123.2,316.7 130.2,319.5 133.2,324.3 131.2,334.4 140.3,342.9 147.9,340 154.1,341.5 158.1,349.8 
			167.2,349.8 173.5,342 179.1,338.5 187.9,341.3 191.9,338.2 196.6,332.6 193.8,322.6 196.6,317.9 203.7,314.6 203,302.2 
			195.5,300.5 192.5,292.5 195,284.5 186,276.4 181,278.8 		"/>
	</g>
	<g id="XMLID_102_">
		<path class="st13" d="M142.7,341.5c0,0,1.6-48.6,51.6-44.3l-1.7-4.7l2.5-8l-9-8.1l-5,2.4l-8.3-1.5l-4.4-8l-12.2,0.3l-3.1,7.3
			l-4.6,3.8l-10.2-3.1l-8.4,8.9l3,3.7l-2.1,10.1l-8.1,2.4l0.6,13.9l7,2.9l3,4.8l-2,10.1l5.4,7.1H142.7z"/>
	</g>
	<g id="XMLID_101_">
		<polygon class="st14" points="170.4,294.8 156.7,296.2 149.9,302.9 148.4,309.6 153.5,320.8 161.4,324.2 172.8,320.8 176.8,315.3 
			176.8,305.8 		"/>
	</g>
	<g id="XMLID_233_">
		<g id="XMLID_58_">
			<path id="XMLID_54_" class="st11" d="M162.7,352.7c-2.9,0-4.9-0.3-5.1-0.4l-1.6-0.3l-0.5-1.5c-1.3-4.4-3.1-7-5.6-7.7
				c-3.8-1.2-8.2,2.1-8.2,2.2l-1.4,1.1l-1.5-1c-5.5-3.5-9.6-8.9-9.8-9.2l-1-1.3l0.7-1.4c2.1-4.3,2.5-7.6,1.2-9.9
				c-1.9-3.4-7.1-4.1-7.1-4.1l-1.8-0.2l-0.4-1.7c-1.5-5.8-0.1-12.9-0.1-13.2l0.3-1.6l1.5-0.4c4.1-1.1,6.6-2.9,7.4-5.2
				c1.3-3.9-2.2-8.7-2.2-8.7l-1-1.3l0.8-1.5c3-5.4,8.9-9.5,9.1-9.7l1.7-1.2l1.5,1.4c3.6,3.4,8.5,1.3,8.7,1.2c0.2-0.1,5-2.4,4.9-7.3
				l0-2.1l2-0.5c0.3-0.1,7.3-1.7,13.3-0.4l1.6,0.4l0.3,1.7c0.3,1.6,1.9,6.1,5.1,7.5c2.2,0.9,5.2,0.2,8.8-2.1l1.3-0.9l1.4,0.8
				c0.3,0.2,6.4,3.9,9.8,8.8l1,1.5l-1,1.5c-0.1,0.1-3,4.4-1.7,8.1c0.9,2.5,3.7,4.4,8.2,5.7l1.5,0.4l0.3,1.6
				c0.1,0.3,1.4,6.9,0.4,13.4l-0.3,1.8l-1.8,0.3c0,0-5.5,1.1-7.1,4.7c-1,2.3-0.3,5.4,2.1,9.3l0.9,1.4l-0.9,1.4
				c-0.2,0.2-3.8,6-9.5,9.6l-1.7,1.1l-1.4-1.4c-0.1-0.1-3.9-3.6-8.6-1.5c-4.7,2.1-4.6,7.4-4.6,7.4l0.1,2l-1.9,0.6
				C168.2,352.5,165.1,352.7,162.7,352.7z M160,347.5c1.8,0.1,4.9,0.3,8-0.4c0.4-2.8,2-7.7,7.5-10.1c5.5-2.5,10.1-0.4,12.5,1.2
				c2.5-1.9,4.5-4.3,5.6-5.7c-2.6-4.8-3.1-9-1.5-12.6c1.9-4.3,6.4-6.3,9-7.2c0.3-3.3,0-6.6-0.3-8.4c-5.4-1.8-8.8-4.6-10.1-8.5
				c-1.6-4.4,0.1-8.8,1.4-11.1c-1.9-2.3-4.5-4.2-6-5.2c-4.5,2.6-8.6,3.1-12.1,1.6c-4.6-1.9-6.7-6.8-7.6-9.4c-2.9-0.3-5.9,0-7.7,0.3
				c-1.1,6.8-7.5,9.8-7.8,9.9c-0.3,0.1-6.8,3-12.6-0.8c-1.5,1.2-3.7,3.3-5.3,5.6c1.4,2.4,3.6,7.2,2,11.9c-1.2,3.6-4.4,6.3-9.3,8
				c-0.2,1.8-0.5,5-0.1,7.9c2.5,0.6,6.9,2.3,9.2,6.4c2,3.6,1.8,8-0.4,13.2c1.2,1.4,3.4,3.8,6.1,5.8c2.3-1.4,6.8-3.4,11.3-1.9
				C155.4,339.1,158.2,342.3,160,347.5z"/>
		</g>
		<g id="XMLID_57_">
			<path id="XMLID_40_" class="st11" d="M163.1,326.9c-9.6,0-17.4-7.8-17.4-17.4s7.8-17.4,17.4-17.4s17.4,7.8,17.4,17.4
				S172.7,326.9,163.1,326.9z M163.1,297.3c-6.7,0-12.2,5.5-12.2,12.2s5.5,12.2,12.2,12.2s12.2-5.5,12.2-12.2
				S169.9,297.3,163.1,297.3z"/>
		</g>
	</g>
	<g id="XMLID_29_">
		<circle class="st11" cx="163.1" cy="309.5" r="9.1"/>
	</g>
	<g id="XMLID_18_">
		<path id="XMLID_39_" class="st11" d="M162.6,334.6c-2,0-3.9-0.3-5.8-0.8c-9.9-2.8-14.7-11.9-14.9-12.3c-0.4-0.8-0.1-1.8,0.7-2.2
			c0.8-0.4,1.8-0.1,2.2,0.7l0,0c0,0.1,4.4,8.3,13,10.7c5.5,1.6,11.7,0.4,18.2-3.5c0.8-0.5,1.8-0.2,2.2,0.6c0.5,0.8,0.2,1.8-0.6,2.2
			C172.4,333.1,167.4,334.6,162.6,334.6z"/>
	</g>
</g>
<g id="Gear_1">
	<g id="XMLID_143_">
		<polygon class="st14" points="251.7,404.7 228.7,407.2 210.5,412.8 209.2,428.4 201.6,443.6 186.6,454.8 170.4,456.1 154.1,452.1 
			142,462.6 127.7,485 133.7,496.1 139.3,511.8 139.4,530.5 123.2,549.5 111.3,556.8 116.3,591 119.7,601.6 130.5,602.6 
			148.3,609.3 159.9,623.4 163.1,637.1 157.3,660.6 178.7,676.5 193.7,684.7 212.2,669.5 231.4,668.8 246.7,674.3 259.6,688.5 
			263.9,700 287.8,698.5 308.5,693 312.1,673.5 322.6,656.9 336.6,650.1 358.2,651.5 367,654.7 381.9,636.4 393,617.2 385.5,608 
			378.7,588.9 380.4,571.1 385.5,562.8 407.9,547.6 407.9,535.1 398.8,504.4 385.5,502.6 369.2,495.8 359.8,485 356.5,466.7 
			361.6,445.2 344,431.2 324.9,419.8 316.2,429.5 298.5,436 283.1,434.1 271,429.5 263.7,422.5 254.8,406.3 		"/>
	</g>
	<g id="XMLID_142_">
		<path class="st15" d="M136,536.8c0,0,14.9,28.2,42.9,16.5l1.3,12.8l2.9,16l1,5.3l-27.4,27.9l-13.3-7.4l-12.8-5.4l-10.8-1l-5-21.7
			l-3.3-23.2l14.9-8.3L136,536.8z"/>
	</g>
	<g id="XMLID_141_">
		<path class="st15" d="M339.4,428.4c0,0,1.4,58.1-34.6,57.6l14.5,12.4l12.4,17.6l7.8,18.3l1.3,24.8l50-1.6l17.2-9.9l-3.6-28
			l-5.5-15.2l-13.3-1.8l-13.6-5.1L359.8,485l-3.3-18.3l5.2-21.5L339.4,428.4z"/>
	</g>
	<g id="XMLID_124_">
		<polygon class="st16" points="228.7,478.3 209.8,489.4 190.3,511.4 180.7,533.8 178.9,559.1 184.1,587.4 201.5,610.8 221.2,624.6 
			240.2,632 265.6,634.3 283.1,630.8 302.8,621.8 319.4,608 333.8,587.2 340.6,559.1 340.6,537.3 331.6,516 322.6,499.8 300,482.3 
			282.3,475.5 263.7,472.3 244.2,474 		"/>
	</g>
	<g id="XMLID_123_">
		<polygon class="st14" points="231.9,495.4 211.8,511.4 196.6,536.2 197.2,563.2 203.9,584.8 219.6,602.9 233.5,609.6 256.2,616.8 
			281.5,611.5 298.6,603.2 312.1,587.1 322.1,560.8 322.6,538.9 307.7,511.8 290,495.4 263.7,489.6 242.3,491.6 		"/>
	</g>
	<g id="XMLID_122_">
		<polygon class="st17" points="266.4,530.5 252.9,531.2 242.3,538.9 237.7,553.2 242.9,568.3 252,573 267.1,573 278.9,566.1 
			281.3,549 277.1,539.2 		"/>
	</g>
	<g id="XMLID_121_">
		<polygon class="st15" points="272.4,573 290.4,604.9 302,600.8 314.5,583.5 321.9,562.9 321.6,551.7 309.8,545.8 303.3,544.6 
			294.5,544.6 283.8,551.7 280.4,562.2 		"/>
	</g>
	<g id="XMLID_82_">
		<path class="st18" d="M186.5,520.3c0,0,7.8-6.4,18.2,1.2l20.2-21.7l23.6-8.8l25.6-1.5l23,12.5l21.8,27c0,0,12.9,3.6,14-10.7
			l-10.4-16.1L304.7,486l-16.6-8.5l-19.4-5.2h-14.2l-13,1.1l-12.8,4.9l-14.9,8.1l-7.2,5.7l-14.3,15.6L186.5,520.3z"/>
	</g>
	<g id="XMLID_81_">
		<path class="st19" d="M257.9,614.5c0,0-3.7,12.1-12.7,18c0,0,41,13.7,80.1-31.7c0,0-14-1.5-13.1-13.7
			C312.1,587.1,291.7,618.4,257.9,614.5z"/>
	</g>
	<g id="XMLID_80_">
		<path class="st20" d="M279.2,563.8c0,0,21.5-7.6,35.3,19.8l6.8-18.8l0.3-13c0,0-19.3-15.2-37.8,0L279.2,563.8z"/>
	</g>
	<g id="XMLID_79_">
		<path class="st21" d="M281.5,557.6c0,0,18.9-18.2,40.6,3.2l0.5-8.4l-6.5-3.9l-8.5-3.4l-5.5-0.5l-7.6,1.5l-7.5,2.4l-3.1,3.3
			L281.5,557.6z"/>
	</g>
	<g id="XMLID_78_">
		<path class="st22" d="M221.2,482.4c0,0,58.2-19.3,105.7,25.3l-16.3-18.2l-20.2-10.8l-17.8-5.3l-15.7-1
			C257,472.3,231.9,473.1,221.2,482.4z"/>
	</g>
	<g id="XMLID_77_">
		<path class="st23" d="M237.6,559.1c0,0,8.2,0.1,12.4-5.3h13.6c0,0,13.9,4.4,17.6-4.8l0.3,8.6l-7.3,10.7l-8.8,5.3l-9.7,1.2
			l-12.8-6.5L237.6,559.1z"/>
	</g>
	<g id="XMLID_76_">
		<path class="st24" d="M198.1,538.9c0,0,28.6-12.1,39.5,10.1l4.7-10.1l10.6-7.6l10.8-1.7l8.7,5.1l6.8,8c0,0-3.2-32.7,32.9-29.2
			c0,0-36.3-35.9-74.5-18.3C237.6,495.1,208.5,501,198.1,538.9z"/>
	</g>
	<g id="XMLID_75_">
		<path class="st25" d="M213.4,595.7c0,0,3.2-25.9,29.5-27.5l9.1,4.8l13.4,0.5l7-0.5l18,31.9C290.4,604.9,259.5,632.9,213.4,595.7z"
			/>
	</g>
	<g id="XMLID_74_">
		<path class="st25" d="M316.2,429.5c0,0-30,48.1-75.8-1c0,0-22.4,0-33.9,30.4l-9.3-10.3l7.4-10.3l5-16.4l0.8-9.1l18.2-5.6l22.9-2.5
			l5.1,10.2l12,13.6l14.4,5.7l18.1,1.9L316.2,429.5z"/>
	</g>
	<g id="XMLID_73_">
		<path class="st25" d="M209.2,458.8c0,0-7.1,35.2-46.6,21.3c0,0-14.7-0.3-26.6,18.2l-8.3-13.4l8.3-14.7l18.1-18.1l9.1,2.7l12.2,8.8
			l13.9,3.1l10.7-1.7l6.7-6.2"/>
	</g>
	<g id="XMLID_72_">
		<path class="st25" d="M148.3,609.3c0,0,4.6-26.1,34.7-27.2c0,0,32.2,82,119.8,39.7c0,0,33.9-19,37.8-62.7c0,0,13.5-47.1,65.3-36.1
			l2,24.6l-9.2,4.7l-13.2,10.5l-7.2,17.1l2.6,16.6l12.2,20.6l-7,15.3l-19,22.2l-14.5-5.9l-11.9,0.8l-13.7,4.5l-10.7,11l-5.8,14.4
			l-2,13.4l-20.7,5.5l-23.9,1.5l-8.3-17.5l-14.9-11.2l-14.4-2.7l-15.1,3.5l-17.5,12.7l-22.2-12.3l-14.2-11.8l5.2-16.9l-1.1-15.2
			l-9.3-16.2L148.3,609.3z"/>
	</g>
	<g id="XMLID_71_">
		<path class="st26" d="M193.7,684.7c0,0,12.7-44.6,65.8-22.9l14.8-27.4c0,0,39.4-8,57.5-44.3c0,0,19.5,33.3,61.3,27.1l-4,8.8
			l-14.8,20.7l-7.2,7.9l-14.5-5.9l-18.3,1.8l-11.6,6.2l-8.9,12.7l-5.2,23.4l-20.7,5.5l-23.9,1.5l-5.8-14l-11.3-11.6l-20.5-5.9
			l-14.1,1L193.7,684.7z"/>
	</g>
	<g id="XMLID_63_">
		<path id="XMLID_275_" class="st11" d="M269.9,702.8c-2.1,0-4.1-0.1-6.2-0.2l-2-0.1l-0.3-2c-0.2-1-4.5-23.6-27.4-28.6
			c-22.9-4.9-36.5,14.6-36.7,14.8l-1.1,1.7l-1.9-0.7c-21.6-7.8-38.1-24.6-38.8-25.3l-1.1-1.2l0.5-1.5c6.5-17.9,6.3-31.8-0.6-41.3
			c-10.7-14.8-34.4-14.2-34.6-14.2l-1.8,0.1l-0.7-1.7c-8.1-21.2-8.5-44.8-8.5-45.8l0-1.6l1.4-0.7c17.5-9.1,27.2-19.8,28.7-31.9
			c2.4-18-14.2-33.3-14.4-33.5l-1.3-1.2l0.7-1.7c7.7-18.9,25.9-35.9,26.7-36.6l1.2-1.1l1.5,0.6c16.8,6.4,30.1,6.4,39.4-0.1
			c15.4-10.7,15.3-36,15.3-36.2l0-1.7l1.5-0.7c19.2-8.7,44-8.3,45.1-8.3l2.1,0l0.4,2.1c4.3,22.4,28.2,27.8,28.4,27.8
			c1,0.2,24.3,4.9,37.3-13.7l1.2-1.7l1.9,0.8c1,0.4,23.7,10.3,37.7,26.1l1.1,1.3l-0.7,1.5c-0.1,0.2-10.6,23.2-0.9,39.3
			c5.8,9.7,17.9,15.2,35.9,16.2l1.6,0.1l0.6,1.5c0.4,1,10.1,24,9.3,44.4l-0.1,1.8l-1.7,0.6c-0.2,0.1-21.6,7.3-26.9,24.7
			c-3.5,11.6,0.9,25.4,13.1,40.8l1,1.2l-0.7,1.4c-0.4,0.9-10.4,22.2-26.5,38.2l-1.3,1.3l-1.6-0.8c-0.2-0.1-21.6-10.3-37.4-1.2
			c-10.1,5.8-16,18.4-17.4,37.4l-0.1,1.6l-1.5,0.6C308.6,695.7,290.4,702.8,269.9,702.8z M265.9,697.5c17.8,0.9,35.1-4.6,40.1-6.4
			c1.8-19.9,8.5-33.3,19.9-39.8c15.6-8.9,34.7-2.1,40.5,0.3c12.5-12.9,21.2-29.3,23.6-34.1c-12.6-16.4-17-31.2-13-44.3
			c5.1-17,22.8-25.2,28.4-27.4c0.1-16-6.4-33.9-8.4-39c-18.9-1.4-31.8-7.6-38.4-18.6c-9.6-16-2.4-36.6,0-42.5
			c-11-11.8-27.5-20.1-32.9-22.7c-15.2,19.4-40.3,14.3-41.4,14.1c-1.1-0.2-26-5.9-31.9-29.8c-6,0.1-24.5,1-39.3,7.2
			c-0.2,6.3-2.2,28.1-17.4,38.8c-10.5,7.3-24.8,7.7-42.6,1.2c-3.9,3.9-17.1,17.5-23.6,32.1c4.3,4.4,17,19,14.7,36.7
			c-1.8,13.5-11.9,25.3-30,35c0.2,5.4,1.4,23.9,7.5,40.8c6.3,0.2,26.5,1.8,37,16.3c7.7,10.6,8.3,25.6,1.8,44.5
			c3.9,3.7,17.4,15.8,34,22.3c4.2-5.1,18.7-20.1,40.7-15.3C257.1,671.6,264.2,691.2,265.9,697.5z"/>
	</g>
	<g id="XMLID_62_">
		<path id="XMLID_269_" class="st11" d="M259.6,618c-36.1,0-65.5-29.4-65.5-65.5s29.4-65.5,65.5-65.5s65.5,29.4,65.5,65.5
			S295.7,618,259.6,618z M259.6,492c-33.3,0-60.4,27.1-60.4,60.4s27.1,60.4,60.4,60.4s60.4-27.1,60.4-60.4S292.9,492,259.6,492z"/>
	</g>
	<g id="XMLID_61_">
		<path id="XMLID_263_" class="st11" d="M259.6,577c-13.5,0-24.5-11-24.5-24.5s11-24.5,24.5-24.5s24.5,11,24.5,24.5
			S273.1,577,259.6,577z M259.6,533c-10.7,0-19.4,8.7-19.4,19.4s8.7,19.4,19.4,19.4s19.4-8.7,19.4-19.4S270.3,533,259.6,533z"/>
	</g>
	<g id="XMLID_32_">
		<path id="XMLID_260_" class="st11" d="M259.6,635.9c-45.6,0-82.6-37.1-82.6-82.6s37.1-82.6,82.6-82.6c45.5,0,82.6,37.1,82.6,82.6
			S305.2,635.9,259.6,635.9z M259.6,473.9c-43.8,0-79.4,35.6-79.4,79.4s35.6,79.4,79.4,79.4c43.8,0,79.4-35.6,79.4-79.4
			S303.4,473.9,259.6,473.9z"/>
	</g>
	<g id="XMLID_31_">
		<circle class="st11" cx="259.6" cy="553.3" r="12.8"/>
	</g>
	<g id="XMLID_28_">
		<path id="XMLID_259_" class="st11" d="M382.3,513.5c-29.3,0-36.1-27.8-36.2-28.1c-0.2-0.9,0.3-1.7,1.2-1.9
			c0.9-0.2,1.7,0.3,1.9,1.2c0.3,1.3,7.6,30.5,41.1,24.9c0.9-0.2,1.7,0.5,1.9,1.3c0.1,0.9-0.5,1.7-1.3,1.9
			C387.9,513.2,385,513.5,382.3,513.5z"/>
	</g>
	<g id="XMLID_27_">
		<path id="XMLID_258_" class="st11" d="M221.2,420.1c-0.7,0-1.3-0.4-1.5-1.1c-0.3-0.8,0.1-1.8,1-2.1c0.7-0.3,17.2-6.2,27.7-4.7
			c0.9,0.1,1.5,0.9,1.4,1.8c-0.1,0.9-0.9,1.5-1.8,1.4c-9.6-1.4-25.9,4.5-26.1,4.5C221.6,420,221.4,420.1,221.2,420.1z"/>
	</g>
	<g id="XMLID_26_">
		<path id="XMLID_257_" class="st11" d="M295.7,445.2c-12,0-21-4.6-21.1-4.7c-0.8-0.4-1.1-1.4-0.7-2.2c0.4-0.8,1.4-1.1,2.2-0.7
			c1.2,0.6,28.5,14.5,51.4-10.3c0.6-0.7,1.6-0.7,2.3-0.1c0.7,0.6,0.7,1.6,0.1,2.3C318.5,441.8,306,445.2,295.7,445.2z"/>
	</g>
	<g id="XMLID_25_">
		<path id="XMLID_256_" class="st11" d="M291.5,608.4c-0.6,0-1.1-0.3-1.4-0.8l-20.4-35.6c-0.4-0.8-0.2-1.8,0.6-2.2
			c0.8-0.4,1.8-0.2,2.2,0.6l20.4,35.6c0.4,0.8,0.2,1.8-0.6,2.2C292,608.3,291.7,608.4,291.5,608.4z"/>
	</g>
	<g id="XMLID_24_">
		<path id="XMLID_255_" class="st11" d="M283.1,554.1c-0.4,0-0.7-0.1-1-0.3c-0.7-0.6-0.8-1.6-0.3-2.3c0.2-0.2,15.3-19,41.6-0.3
			c0.7,0.5,0.9,1.5,0.4,2.3c-0.5,0.7-1.5,0.9-2.3,0.4c-23.8-16.9-36.7-1-37.2-0.3C284.1,553.8,283.6,554.1,283.1,554.1z"/>
	</g>
	<g id="XMLID_23_">
		<path id="XMLID_253_" class="st11" d="M167.9,617c-0.6,0-1.2-0.3-1.5-0.9c-11.5-24.4-38.2-21-38.5-21c-0.9,0.1-1.7-0.5-1.8-1.4
			c-0.1-0.9,0.5-1.7,1.4-1.8c0.3,0,29.4-3.7,41.9,22.8c0.4,0.8,0,1.8-0.8,2.2C168.3,617,168.1,617,167.9,617z"/>
	</g>
	<g id="XMLID_22_">
		<path id="XMLID_252_" class="st11" d="M170.4,643.1c-0.2,0-0.4,0-0.6-0.1c-0.8-0.3-1.3-1.3-0.9-2.1c3.9-10.4,0.3-16.5,0.1-16.7
			c-0.5-0.8-0.2-1.8,0.5-2.2c0.8-0.5,1.8-0.2,2.2,0.5c0.2,0.3,4.6,7.6,0.1,19.6C171.6,642.7,171,643.1,170.4,643.1z"/>
	</g>
	<g id="XMLID_21_">
		<path id="XMLID_251_" class="st11" d="M139.3,486.6c-0.1,0-0.2,0-0.4,0c-0.9-0.2-1.4-1.1-1.2-1.9c2.2-9.8,12.9-18.8,13.3-19.1
			c0.7-0.6,1.7-0.5,2.3,0.2c0.6,0.7,0.5,1.7-0.2,2.3c-0.1,0.1-10.3,8.7-12.3,17.4C140.7,486.1,140.1,486.6,139.3,486.6z"/>
	</g>
	<g id="XMLID_20_">
		<path id="XMLID_250_" class="st11" d="M301.3,683.7c-0.9,0-1.6-0.7-1.6-1.5c0-0.4-1.5-38.5,36.8-42.3c0.9-0.1,1.7,0.6,1.8,1.5
			c0.1,0.9-0.6,1.7-1.5,1.8c-14.8,1.5-25,8.4-30.3,20.7c-4,9.2-3.6,18.1-3.6,18.2C303,682.9,302.3,683.7,301.3,683.7
			C301.3,683.7,301.3,683.7,301.3,683.7z"/>
	</g>
	<g id="XMLID_16_">
		<path id="XMLID_248_" class="st11" d="M217.5,524.7c-0.3,0-0.6-0.1-0.9-0.3c-0.8-0.5-1-1.5-0.5-2.2c0.2-0.3,21.2-32,61.3-22
			c0.9,0.2,1.4,1.1,1.2,2c-0.2,0.9-1.1,1.4-2,1.2c-37.9-9.4-57.6,20.4-57.8,20.7C218.6,524.4,218,524.7,217.5,524.7z"/>
	</g>
	<g id="XMLID_15_">
		<path class="st27" d="M226.3,513.4"/>
	</g>
</g>
<g id="Left_Leg">
	<polygon id="XMLID_137_" class="st5" points="164.7,436 161.4,444.9 163.1,454.9 176.8,463.9 189.2,466.7 199.9,465 206.6,458.8 
		199.9,451.8 193.4,443.6 189.2,433.7 	"/>
	<polygon id="XMLID_130_" class="st6" points="190,362.1 172.2,411.8 167.3,429.5 167.3,431.2 189.2,433.7 204.6,402.1 222.9,374.3 
		233.5,363.3 243.7,359.7 253.3,352.6 266.4,330.8 203.7,333.4 	"/>
	<polygon id="XMLID_110_" class="st7" points="171.4,414.9 167.3,431.2 189.2,433.7 196.6,417.4 	"/>
	<path id="XMLID_106_" class="st7" d="M181,413.6c0,0,17.1-49.2,32.4-67.7l-9.7,3.8l-8,0.5l-11.6,28.5l-12.7,36.2L181,413.6z"/>
	<path id="XMLID_105_" class="st7" d="M233.5,363.3c0,0,22.5-18.2,27-32.2l5.9-0.2l-2.8,13.2l-12,11.9L233.5,363.3z"/>
	<path id="XMLID_103_" class="st8" d="M188.9,414.2c0,0,21.7-47.7,44.7-50.9l-15,16.7l-11.9,20.3l-8.8,15.7L188.9,414.2z"/>
	<path id="XMLID_83_" class="st9" d="M161.4,443.6c0,0,13.8,20.7,43.3,13.3l-2.5,7.8l-9.9,2l-17-3.1l-8-6l-5.5-7.4L161.4,443.6z"/>
	<g id="XMLID_46_">
		<path id="XMLID_132_" class="st11" d="M189.2,436.3H163l0.8-3.2c14.9-60.5,37.4-100.6,37.7-101l0.7-1.2L273,328l-1.9,3.9
			c-14.3,28.9-32.2,33.2-36.5,33.9c-23,20-42.8,68.5-43,68.9l-0.7,1.6H189.2z M169.6,431.2h17.9c3.8-8.9,22.3-51.2,44.4-69.8
			l0.7-0.6l0.9,0c0.2,0,16.8-1.5,31-27.2l-59.2,2.4C201.4,342.9,182.8,379,169.6,431.2z"/>
	</g>
	<g id="XMLID_45_">
		<path id="XMLID_131_" class="st11" d="M191,469.3c-11.1,0-24.3-5.6-29.1-12.8c-7.8-11.6,2-23.9,2.5-24.4c0.9-1.1,2.5-1.3,3.6-0.4
			c1.1,0.9,1.3,2.5,0.4,3.6c-0.3,0.4-7.8,9.8-2.2,18.3c3.8,5.6,17.3,11.5,27.6,10.4c4.6-0.5,7.9-2.3,9.7-5.3
			c-4.2-3.6-15.1-14-16.7-24.6c-0.2-1.4,0.7-2.7,2.1-2.9c1.4-0.2,2.7,0.7,2.9,2.1c1.7,10.9,16.3,22.5,16.4,22.7l1.5,1.2L209,459
			c-2.3,5.8-7.4,9.3-14.7,10.1C193.2,469.2,192.1,469.3,191,469.3z"/>
	</g>
	<g id="XMLID_14_">
		<path id="XMLID_118_" class="st11" d="M197.6,351.9c-1.6,0-2.6-0.1-2.6-0.2c-0.9-0.1-1.5-1-1.3-1.9c0.1-0.9,1-1.5,1.9-1.3
			c0.7,0.1,17.4,2.5,26-16.6c0.4-0.8,1.3-1.2,2.1-0.8c0.8,0.4,1.2,1.3,0.8,2.1C217,350,203.3,351.9,197.6,351.9z"/>
	</g>
	<g id="XMLID_13_">
		<path id="XMLID_116_" class="st11" d="M196.6,417.2C196.6,417.2,196.5,417.2,196.6,417.2l-25.2-1.3c-0.9,0-1.6-0.8-1.5-1.7
			c0-0.9,0.8-1.6,1.7-1.5l25.1,1.3c0.9,0,1.6,0.8,1.5,1.7C198.2,416.5,197.5,417.2,196.6,417.2z"/>
	</g>
</g>
<g id="Hair">
	<polygon id="XMLID_212_" class="st28" points="171.5,224.7 177.7,205 191.3,188.4 196.9,168.1 195.9,150.7 196.1,138.9 201,125.5 
		209.2,119.2 229.6,114.8 249.2,117.3 275.5,129 285.5,124.9 299.9,121.7 325.1,126.8 348.7,144.8 374.1,185.5 386.8,208.1 
		408.9,236.8 419,244.3 426.4,248.2 440,250.4 438,261.5 430.1,274.7 412.6,279.9 399.5,294 383.1,301.3 354.9,296.8 345.7,294.2 
		333.4,299.6 317,302.5 302.9,301.1 287,291.7 279.9,285.9 273.4,280.1 261.2,281.7 228.6,284 196.1,270.3 180.3,253.4 173.2,237.4 
			"/>
	<path id="XMLID_211_" class="st29" d="M182.4,255.7c0,0,4.4-41.2,40.3-96.9l46.3-16.4l1.9,9.5l12.3,20.7l23.1,14.9l19.5,1.8
		l12.4,19.4l-2.7,31.4c11.6,52.5,63.9,54,63.9,54l-20.7,8.5l-34.9-8.5l-18.7,7l-24.6-1.5l-20.5-13.7l-7.5-7.7l-31.7,7.7l0.5-2.2
		l-21.1-1.3C220.1,282.4,194.3,277.3,182.4,255.7z"/>
	<path id="XMLID_210_" class="st29" d="M269,145.2c0,0,18.4,44.5,61.7,36c0,0,4.5,29.6,26.6,34.7l-17.2-1.7l-10.4-8.4l-7.7-13.5
		l-20-3.8l-19.2-12.1l-6.8-9.2l-7.5-18.2L269,145.2z"/>
	<path id="XMLID_209_" class="st29" d="M372.3,247.5c0,0,29.1,36.4,55,28l10.7-14.1C438,261.5,414.4,275.2,372.3,247.5z"/>
	<path id="XMLID_208_" class="st29" d="M208.9,153.9c0,0,44.1,2.5,63.4-16.9C272.4,137,254.6,175.1,208.9,153.9z"/>
	<path id="XMLID_207_" class="st30" d="M192.2,206.4c17.4-21.1,5.2-53.6,5.2-53.6l-2.9,21.5l-3.3,14.1l-11.8,14.4l-5.3,11.1
		l-2.7,10.9l1.7,12.6C173.2,237.4,174.9,227.5,192.2,206.4z"/>
	<path id="XMLID_206_" class="st30" d="M275.8,131.3c0,0,42.3-16.9,74.3,32.2s20.9,38.4,20.9,38.4s38.4,76.3,69,48.5l-11.2-1.3
		l-21.6-15.6l-16.1-19.7l-26.4-46L341,138.9l-14.7-9.8l-17.8-7.1l-23,3L275.8,131.3z"/>
	<path id="XMLID_205_" class="st30" d="M197.2,154.6c0,0,1.4-49.6,78.5-23.3l-6.7-6.8l-23.5-8.2l-12.8-1.6l-8.8,0.5l-11.5,2.7
		l-8.3,3.1l-4.4,8l-3.6,9.7L197.2,154.6z"/>
	<g id="XMLID_204_">
		<path id="XMLID_293_" class="st11" d="M375.3,303.7c1,0,2,0,3.1-0.1c14.4-1,27.3-9.4,38.3-24.8c0.8-1.2,0.6-2.8-0.6-3.6
			c-1.2-0.8-2.8-0.6-3.6,0.6c-10,14.1-21.6,21.7-34.5,22.6c-22.9,1.6-42.4-18.6-42.6-18.8c-1-1-2.6-1.1-3.6-0.1
			c-1,1-1.1,2.6-0.1,3.6C332.5,284.1,351.4,303.7,375.3,303.7z"/>
	</g>
	<g id="XMLID_203_">
		<path id="XMLID_292_" class="st11" d="M299.3,179.8c0.6,0,1.2-0.3,1.5-0.9c0.4-0.8,0.1-1.9-0.8-2.3c-14.4-7.2-20.6-28-20.6-28.2
			c-0.3-0.9-1.2-1.4-2.1-1.2c-0.9,0.3-1.4,1.2-1.2,2.1c0.3,0.9,6.7,22.4,22.4,30.3C298.8,179.8,299.1,179.8,299.3,179.8z"/>
	</g>
	<g id="XMLID_202_">
		<path id="XMLID_291_" class="st11" d="M314.8,184.7c1.6,0,3.4-0.2,5.3-0.7c0.9-0.3,1.4-1.2,1.2-2.1c-0.3-0.9-1.2-1.4-2.1-1.2
			c-6.4,1.8-12-1.1-12-1.2c-0.8-0.4-1.8-0.1-2.3,0.7c-0.4,0.8-0.2,1.8,0.7,2.3C305.7,182.6,309.6,184.7,314.8,184.7z"/>
	</g>
	<g id="XMLID_201_">
		<path id="XMLID_290_" class="st11" d="M205.9,136.5c0.5,0,1-0.2,1.4-0.7l0,0c0.5-0.7,13.6-18.1,45.9-5.6c0.9,0.3,1.9-0.1,2.2-1
			c0.3-0.9-0.1-1.9-1-2.2c-34.9-13.4-49.3,6-49.9,6.8c-0.5,0.8-0.4,1.8,0.4,2.4C205.2,136.4,205.5,136.5,205.9,136.5z"/>
	</g>
	<g id="XMLID_200_">
		<path id="XMLID_289_" class="st11" d="M184.1,242c0.3,0,0.6-0.1,0.8-0.2c0.8-0.5,1.1-1.5,0.6-2.3l0,0c-0.3-0.5-6.7-12.4,2.7-26.5
			c0.5-0.8,0.3-1.8-0.5-2.4c-0.8-0.5-1.8-0.3-2.4,0.5c-10.6,15.9-3.2,29.5-2.8,30.1C182.9,241.6,183.5,242,184.1,242z"/>
	</g>
	<g id="XMLID_199_">
		<path id="XMLID_288_" class="st11" d="M377.7,293.4c7.4,0,14.8-2.6,20.6-10.1c0.6-0.7,0.4-1.8-0.3-2.4c-0.7-0.6-1.8-0.4-2.4,0.3
			c-16.4,21-47.2-2.2-47.5-2.5c-0.7-0.6-1.8-0.4-2.4,0.3c-0.6,0.7-0.4,1.8,0.3,2.4C346.3,281.6,361.9,293.4,377.7,293.4z"/>
	</g>
	<g id="XMLID_198_">
		<path id="XMLID_286_" class="st11" d="M423.5,257.6c0.4,0,0.7,0,1.1,0c0.9,0,1.7-0.8,1.6-1.8c0-0.9-0.8-1.6-1.8-1.6
			c-0.3,0-0.6,0-0.9,0c-28.3,0-56-66.8-56.3-67.4c-0.4-0.9-1.3-1.3-2.2-0.9c-0.9,0.4-1.3,1.3-0.9,2.2
			C365.2,191,393,257.6,423.5,257.6z"/>
	</g>
	<g id="XMLID_287_">
		<path id="XMLID_197_" class="st11" d="M317.7,305c2.6,0,5-0.2,7.2-0.5c14.3-2.2,23.5-10,23.9-10.4c1.1-0.9,1.2-2.6,0.3-3.6
			c-0.9-1.1-2.5-1.2-3.6-0.3l0,0c-0.1,0.1-8.6,7.3-21.5,9.2c-17.3,2.5-33.9-5.2-49.6-22.9l-1.2-1.4l-1.7,0.7
			c-0.3,0.1-30.8,12.8-58.7,1.4c-15.9-6.5-28-19.5-36-38.8c-2.4-5.9-6.4-21.5,10.1-39.2c17.5-18.8,12.3-45.4,11.8-47.6
			c-0.2-1.4-3-24.3,11.5-30c13.4-5.3,32.8-9,64.1,9.7l1.3,0.8l1.3-0.8c0.1-0.1,9.6-5.6,22.9-6c17.8-0.5,33.9,8.1,47.7,25.5
			c15.9,20.1,24.2,35.2,31.5,48.5c8.6,15.7,15.4,28.1,30.9,41.9l0.1,0.1c1.7,1.4,16,12.3,27.2,12.1c-0.6,5-2.8,15.1-10.1,19.4
			c-6.4,3.8-15.7,2.6-27.6-3.5c-1.3-0.7-2.8-0.2-3.5,1.1c-0.7,1.3-0.2,2.8,1.1,3.5c13.5,7.1,24.5,8.2,32.6,3.4
			c12.4-7.4,12.8-26,12.8-26.7l0.1-3.4l-3.3,0.9c-7.6,2.1-21.3-7-26.1-10.7c-14.9-13.2-21.4-25.3-29.8-40.5
			c-7.4-13.5-15.8-28.8-32-49.2c-18.6-23.4-38.6-27.8-52.1-27.4c-11.7,0.4-20.5,4.3-23.8,6c-25.3-14.8-46.1-17.6-67.3-9.3
			c-18.7,7.4-14.9,34.5-14.7,35.6l0,0.2c0.1,0.3,5.4,25.9-10.5,43.1c-19,20.5-13.2,39.4-11,44.7c8.5,20.6,21.6,34.6,38.8,41.6
			c26.3,10.7,53.7,1.9,60.8-0.8C288.8,300.1,305.2,305,317.7,305z"/>
	</g>
</g>
<g id="Right_Arm">
	<g id="XMLID_135_">
		<polygon class="st31" points="379.2,320.1 368.6,330.7 371,339.5 382.1,344 387.6,341.1 402.7,336.4 403.5,330.7 397.4,320.8 
			388.9,319.5 		"/>
	</g>
	<g id="XMLID_125_">
		<polygon class="st32" points="283.7,275.8 282.2,295.5 290,305.4 305,315.7 325.5,323.5 334.7,327.5 350.9,333.4 367.5,333.4 
			373.1,324.3 380.8,320 374.1,315 359.3,308.5 344,306.3 329,307.4 320.3,294.1 308,282.6 290,277.3 		"/>
	</g>
	<g id="XMLID_99_">
		<path class="st33" d="M284.6,287.4c0,0,23.4,25,44.4,27.9c0,0,24.1,13.3,39.5,11.2l-1.1,6.9l-9.9,0.8H348L329,323l-22.4-6.7
			l-24.4-17.9L284.6,287.4z"/>
	</g>
	<g id="XMLID_68_">
		<path class="st34" d="M356.3,334.1c0,0-2.9-14.2,12.2-23.3l10.3,7.8l-5.8,5.7l-5.6,9.1L356.3,334.1z"/>
	</g>
	<g id="XMLID_49_">
		<path id="XMLID_92_" class="st11" d="M404.3,338.5c-1.4,0-2.5-1.1-2.6-2.5c-0.1-4.4-1.5-7.7-4.3-10.1c-6-5.1-16.2-3.8-16.3-3.8
			l-1.1,0.1l-0.9-0.7c-19.5-15.7-49.6-12.8-49.9-12.8l-1.7,0.2l-0.8-1.5c-14.1-26.1-43-29.1-43.3-29.1c-1.4-0.1-2.5-1.4-2.3-2.8
			s1.4-2.5,2.8-2.3c1.3,0.1,30.9,3,46.6,30.3c6.9-0.4,32.6-0.9,51.1,13.4c3.2-0.2,12.7-0.4,19.2,5.1c3.9,3.3,5.9,8,6.1,13.9
			C406.9,337.3,405.8,338.4,404.3,338.5C404.3,338.5,404.3,338.5,404.3,338.5z"/>
	</g>
	<g id="XMLID_48_">
		<path id="XMLID_91_" class="st11" d="M385.5,346.6c-0.1,0-0.2,0-0.3,0c-9.1-1-15.3-3.6-18.4-7.6c-0.7-0.9-1.2-1.8-1.4-2.6
			c-17,2.6-34.4-7.8-37.3-9.7c-36.1-8.2-47.7-28.4-48.2-29.2c-0.7-1.2-0.2-2.8,1-3.5c1.2-0.7,2.8-0.2,3.5,1
			c0.2,0.3,11.3,19.2,45.2,26.8l0.5,0.1l0.4,0.3c0.2,0.1,19.6,12.7,36.4,8.7l4.1-1l-0.9,3.8v0c0,0-0.1,5.9,15.8,7.7
			c1.4,0.2,2.4,1.4,2.3,2.8C387.9,345.6,386.8,346.6,385.5,346.6z"/>
	</g>
	<g id="XMLID_47_">
		<path id="XMLID_90_" class="st11" d="M367.5,336c-0.2,0-0.5,0-0.7-0.1c-1.4-0.4-2.1-1.8-1.7-3.2c0.1-0.5,3.7-12,15-15.6
			c1.4-0.4,2.8,0.3,3.2,1.7c0.4,1.4-0.3,2.8-1.7,3.2c-8.7,2.7-11.6,12.1-11.7,12.2C369.6,335.3,368.6,336,367.5,336z"/>
	</g>
</g>
<g id="Gear_2">
	<g id="XMLID_140_">
		<polygon id="XMLID_3_" class="st35" points="408.1,335.9 389.6,340.2 385.5,352.6 380.4,359.9 374.1,362.9 360.4,361.4 352,373.7 
			349.6,379.6 357.7,392 356.8,401.7 353.5,406.3 345.2,412.3 345.6,428.4 350.9,432.6 362.7,433.7 369.2,441.2 371.2,450.2 
			369.9,459.6 376.7,464.5 385.5,469.4 394.3,465.5 405.9,462.3 414.7,466.9 421.1,475.5 436,472.3 441.7,469.7 441.7,461 
			447.4,453 458.9,447.4 468.3,449.9 475.9,439.7 479.7,431.9 472.1,420.6 472.1,413.6 477.8,403.2 484.2,399.2 479,378.3 
			472.1,377.4 461.4,372.1 458.9,362.1 458.9,351.3 440.7,341.1 430,350.2 421.1,348.8 414.7,345 		"/>
	</g>
	<g id="XMLID_139_">
		<path id="XMLID_4_" class="st36" d="M374.1,362.9c0,0,14.1-3.6,22,8.1c0,0,25-13.4,44.6,5.1l8.9,11.5l3.2,8.1l10.3-13.4l0.8-8.1
			l-7.3-6.8l2.1-16.1l-18.2-10.2l-10.7,9.1l-8.9-1.4l-13.2-14.6l-14.9,4.7l-3.5,1.3l-2.2,9.6l-1.9,7.5L374.1,362.9z"/>
	</g>
	<g id="XMLID_120_">
		<polygon id="XMLID_5_" class="st14" points="411.6,366.3 396.1,371 383.2,382.2 377.9,392 375.5,404.7 377.6,418.4 385.5,431.8 
			396.1,440.2 410.3,444.9 421.5,444.9 437.2,438.4 446.7,428.4 453.2,411 453.2,392 442.9,377.5 430.1,369.3 		"/>
	</g>
	<g id="XMLID_119_">
		<polygon id="XMLID_6_" class="st16" points="428.4,384.2 410.3,380 400.6,384.2 390.7,392 389.6,408.1 392.9,419.3 404.3,428.4 
			419.1,431.2 430.4,426.3 437.6,416.6 439.7,402.8 438.3,397.1 		"/>
	</g>
	<g id="XMLID_88_">
		<path id="XMLID_7_" class="st12" d="M362.7,433.7c0,0,16.3,3.7,22.8-1.9l10.6,8.4l14.2,4.7l14.1-1.2l12.7-5.3l13-14.1l3-13.3v-19
			c0,0,10.7-9.9,8.2-19.8l9.8,7.9l7.8-1.8l4.7,18.9l-12.6,11.4v9.9l8.5,13.4l-7.1,13l-4.3,5l-9.4-2.5l-8.7,2.5l-6.7,8.6l-1.8,11.3
			l-20.5,5.8l-6.4-8.6l-13.7-4.4l-12.6,8l-11.8-6.1l-6.7-4.9l0.6-14.7L362.7,433.7z"/>
	</g>
	<g id="XMLID_87_">
		<path id="XMLID_8_" class="st35" d="M396.1,440.2c0,0,10.7-2.9,11.8-10.7l11.1,1.7l13.4-7.4l7.2-13.7v-9c0,0-2.1-14,5-21.1
			l7.1,13.5l1.4,17.4l-3,13.3L440.1,436l-15.6,7.7l-14.1,1.2L396.1,440.2z"/>
	</g>
	<g id="XMLID_86_">
		<path id="XMLID_9_" class="st18" d="M392.9,419.3c0,0,1.4-11.1,15-11.5l11.1-12.1c0,0,5.7-9.9,17.1-6l-11.5-6.4l-8.5-3.3
			l-11.1,2.2l-8.1,4.7l-6.5,7.3l-1.6,12.1L392.9,419.3z"/>
	</g>
	<g id="XMLID_85_">
		<path id="XMLID_10_" class="st37" d="M404.3,336.8c0,0,11.2,41.9,48.9,10.7l-12.5-6.4l-7.6,6l-14,2.8l-7.6-8.4l-3.4-5.6
			L404.3,336.8z"/>
	</g>
	<g id="XMLID_236_">
		<g id="XMLID_60_">
			<path id="XMLID_33_" class="st11" d="M419.6,478.3l-0.8-1.5c-4.1-7.4-8.7-11.4-13.7-11.9c-7.8-0.7-14.4,7.3-14.5,7.3l-1.2,1.5
				l-1.8-0.7c-10.3-3.8-19-11.2-19.4-11.5l-1.3-1.1l0.4-1.6c2.1-8.5,1.4-14.9-2.1-18.8c-5.2-5.8-15-4.8-15.1-4.8l-1.9,0.2l-0.9-1.7
				c-4.5-8.9-4.9-21-4.9-21.5l0-1.7l1.5-0.8c7.1-3.7,10.9-8.1,11.4-12.9c0.9-7.9-7.5-15.3-7.6-15.4l-1.4-1.2l0.5-1.7
				c3-9.8,11-18.8,11.4-19.2l1.5-1.6l1.9,1.1c8.4,4.9,17-1.3,17.1-1.4c0.3-0.3,8.5-6.5,6.2-16l-0.5-2.2l2-1
				c0.5-0.2,11.3-5.4,21.6-5.4l1.8,0l0.7,1.6c0,0.1,4.7,10.2,12.6,11.7c4.7,0.9,10-1.6,15.6-7.3l1.2-1.2l1.6,0.5
				c0.5,0.2,12,4,19.2,10.8l1.4,1.3l-0.7,1.8c0,0.1-3.8,9.3,0.3,15.8c2.8,4.4,8.6,6.9,17.4,7.3l1.7,0.1l0.7,1.5
				c0.2,0.4,4.8,10.9,5.5,21.8l0.1,1.9l-1.8,0.8c-0.1,0-9.7,4.2-11.2,11.8c-1,4.9,1.5,10.4,7.5,16.4l1.2,1.2l-0.6,1.6
				c-0.2,0.5-4.1,11.2-12,19.1l-1.5,1.5l-1.8-1.1c-0.4-0.2-9-5.2-17,0.8c-8,6-5.7,15.6-5.6,16.1l0.5,2l-1.8,1
				c-9.8,5.4-21.2,6.1-21.7,6.1L419.6,478.3z M404.1,459.5c0.5,0,1,0,1.5,0.1c6.5,0.6,12.2,5,17.1,13.1c3-0.4,9.8-1.4,16-4.4
				c-0.5-4.2-0.4-13.3,8-19.6c8.4-6.3,17.2-3.7,21.1-2.1c4.6-5.1,7.6-11.3,8.8-14.1c-6.4-6.9-9-13.7-7.7-20.1
				c1.6-8.1,9.1-13,12.6-14.9c-0.8-7.1-3.1-13.8-4.2-16.7c-9.7-0.8-16.5-4.1-20-9.8c-4.3-6.9-2.5-15.3-1.4-19
				c-4.9-4-11.4-6.8-14.3-7.9c-6.5,6.2-13,8.7-19.2,7.6c-8.5-1.5-13.8-9.6-15.7-13.1c-6.2,0.4-12.6,2.7-15.7,4
				c1.5,11.7-8.2,19-8.6,19.4c-0.4,0.3-10.3,7.5-21,2.8c-2.1,2.6-6.2,8.1-8.3,13.9c2.9,2.9,9.1,10.2,8.1,18.8
				c-0.7,6.3-5,11.8-12.7,16.2c0.2,3.1,1,10.2,3.5,16c3.9-0.1,12.4,0.6,17.8,6.7c4.4,5,5.7,12.4,3.7,22c2.5,1.9,8.2,6.1,14.8,8.8
				C390.4,464.7,396.5,459.5,404.1,459.5z"/>
		</g>
		<g id="XMLID_59_">
			<path id="XMLID_17_" class="st11" d="M414.5,433.9c-5.3,0-10.5-1.5-15.1-4.4c-6.4-4.1-10.8-10.4-12.4-17.7
				c-3.4-15.2,6.2-30.4,21.5-33.8c15.2-3.4,30.4,6.2,33.8,21.5l0,0c1.6,7.4,0.3,15-3.7,21.3c-4.1,6.4-10.4,10.8-17.7,12.4
				C418.6,433.7,416.5,433.9,414.5,433.9z M414.5,382.8c-1.6,0-3.3,0.2-5,0.5c-12.3,2.7-20.1,15-17.3,27.2c1.3,6,4.9,11,10,14.3
				c5.1,3.3,11.3,4.3,17.2,3c6-1.3,11-4.9,14.3-10s4.3-11.3,3-17.2C434.4,390,425,382.8,414.5,382.8z"/>
		</g>
	</g>
	<g id="XMLID_2_">
		<circle id="XMLID_11_" class="st11" cx="414.7" cy="405.6" r="13.7"/>
	</g>
	<g id="XMLID_38_">
		<path id="XMLID_41_" class="st11" d="M414.7,446.6c-22.6,0-41-18.4-41-41c0-22.6,18.4-41,41-41c22.6,0,41,18.4,41,41
			C455.8,428.2,437.4,446.6,414.7,446.6z M414.7,368.1c-20.7,0-37.6,16.8-37.6,37.6c0,20.7,16.8,37.6,37.6,37.6
			c20.7,0,37.6-16.8,37.6-37.6C452.3,384.9,435.4,368.1,414.7,368.1z"/>
	</g>
</g>
<g id="Body">
	<polygon id="XMLID_128_" class="st38" points="220.7,260 203.7,333.4 268.7,330.7 277.8,313.8 283.7,284.1 283.7,275.8 
		271.8,266.4 244.2,257.6 	"/>
	<g id="XMLID_64_">
		<path id="XMLID_98_" class="st32" d="M222.9,262.3c0,0-13.7,45.7,10.6,58.5c25,13.1,32.9,7.7,32.9,7.7l-62.8,2.4l17-70.8
			L222.9,262.3z"/>
		<path id="XMLID_97_" class="st39" d="M272.3,269.4c0,0,5.4,6,4.3,47.6l7.5-26.8l-0.3-14.4l-6.6-9L272.3,269.4z"/>
		<path id="XMLID_70_" class="st34" d="M240.7,259.1c0,0,0.3,16.5,22.4,21.8l0.5-9l-8.4-0.5l-6.1-5l-5.1-8.7L240.7,259.1z"/>
		<path id="XMLID_69_" class="st34" d="M252.2,274.2c0,0,9.8,4.8,5.7,33.9l3.3-12.7l2.2-19.6L252.2,274.2z"/>
		<g id="XMLID_65_">
			<path id="XMLID_112_" class="st11" d="M200.4,336.1l18.2-78.4l1.7-0.2c2-0.3,49.3-6.6,65.4,16.9l0.4,0.6l0,0.8
				c0,1.5,0.9,35.9-15.5,56.6l-0.7,0.9L200.4,336.1z M222.8,262.3l-15.9,68.4l60.5-2.5c13.3-17.8,13.7-46.6,13.7-51.6
				C267.9,258.8,231.2,261.5,222.8,262.3z"/>
		</g>
		<g id="XMLID_66_">
			<path id="XMLID_111_" class="st11" d="M257.3,311.2c-0.2,0-0.4,0-0.6-0.1c-0.8-0.3-1.2-1.3-0.9-2.1c6-15.4,6.2-37.5,6.2-37.7
				c0-0.9,0.7-1.6,1.6-1.6c0,0,0,0,0,0c0.9,0,1.6,0.7,1.6,1.6c0,0.9-0.2,22.9-6.5,38.9C258.6,310.8,258,311.2,257.3,311.2z"/>
		</g>
		<circle id="XMLID_67_" class="st11" cx="254.9" cy="282.6" r="3.2"/>
	</g>
</g>
<g id="Left_Arm">
	<polygon id="XMLID_134_" class="st31" points="141.2,273.3 133.1,282.6 120.3,293.4 112.7,293.4 112.7,286 115.5,273.3 126.2,260 
		133.7,266.4 	"/>
	<path id="XMLID_126_" class="st32" d="M213.3,285.8l7.4-25.8c0,0-35.8-31.3-94.5,0l11.3,11.9l8.5-0.6l7.9-4.9l17.5,2.3l22.2,7.2
		L213.3,285.8z"/>
	<path id="XMLID_100_" class="st33" d="M133.7,266.4c0,0,47.4-22.1,82.6,12.7l-1.6,6.8l-18.1-10l-18.7-6.9l-17.9-1.1l-13.9,3.4
		l-7.2,1.4L133.7,266.4z"/>
	<path id="XMLID_84_" class="st34" d="M141.2,253.5c0,0,9,4.1,9.7,15.9l-9.7,3.9l-7.5-6.9l-5.9-7.1L141.2,253.5z"/>
	<g id="XMLID_89_">
		<path id="XMLID_94_" class="st11" d="M216.2,290.6l-3-1.9c-39.4-24-59.2-19.3-67.5-14.3c-2.1,1.2-4.5,1.6-6.8,0.9
			c-2.3-0.7-4.3-2.3-5.4-4.5c-3.1-6.1-8.3-8.5-8.3-8.5l-4.9-2.2l4.8-2.4c32.9-16.4,57.5-15.5,72.3-11.9c16.3,4,24.7,12,25.1,12.3
			l1,1L216.2,290.6z M162.2,265.3c11.7,0,28.2,4,50.7,17.2l5-21.6c-2.6-2.1-10-7.3-22-10.2c-13.4-3.2-35.2-4-64.4,9.6
			c2.2,1.7,4.7,4.4,6.6,8.2c0.5,0.9,1.3,1.6,2.2,1.9c0.9,0.3,1.9,0.1,2.7-0.4C147,267.7,153.2,265.3,162.2,265.3z"/>
	</g>
	<g id="XMLID_93_">
		<path id="XMLID_117_" class="st11" d="M117.1,296.7c-0.9,0-1.7-0.2-2.5-0.5c-3-1.3-4.5-4.7-4.4-10.2c0.4-19,14.2-27.8,14.7-28.2
			c1.2-0.7,2.8-0.4,3.5,0.8c0.7,1.2,0.4,2.8-0.8,3.5c-0.5,0.3-12,7.7-12.3,23.9c-0.1,3.5,0.7,5.1,1.3,5.4c1.6,0.7,6-1.9,9.6-5
			c-1.4-2.1-2.1-4.5-2.1-7c0.2-7.8,7.5-14.7,7.8-14.9c1-1,2.7-0.9,3.6,0.1c1,1,0.9,2.7-0.1,3.6c-0.1,0.1-6,5.7-6.2,11.3
			c0,2,0.7,3.7,2.3,5.3l1.8,1.8l-1.8,1.8C130,290,122.9,296.7,117.1,296.7z"/>
	</g>
</g>
<g id="Neck">
	<polygon id="XMLID_127_" class="st31" points="249.2,240.4 244.2,257.6 249.2,266.4 257.3,271.4 263.7,271.8 270.7,268.9 
		277,247.8 	"/>
	<path id="XMLID_176_" class="st40" d="M246.8,248.6c0,0,10.2,11.7,27.7,7.5l2.5-8.3l-27.8-7.4L246.8,248.6z"/>
	<g id="XMLID_177_">
		<path id="XMLID_178_" class="st11" d="M261.8,273.9c-1.8,0-3.5-0.3-5.2-0.8c-8.9-2.7-13.6-11.6-13.8-12l-0.4-0.8l4.2-20.5
			c0.3-1.4,1.6-2.3,3-2c1.4,0.3,2.3,1.6,2,3l-3.8,18.7c1.2,1.9,4.8,7,10.3,8.7c3.3,1,6.8,0.6,10.4-1.1l6-20c0.4-1.4,1.8-2.1,3.2-1.7
			c1.4,0.4,2.1,1.8,1.7,3.2l-6.7,22.1l-0.9,0.5C268.5,273,265.1,273.9,261.8,273.9z"/>
	</g>
</g>
<g id="Head">
	<g id="XMLID_184_">
		<polygon id="XMLID_196_" class="st31" points="218.1,160.3 201.3,205.2 201.6,216.5 211.7,225.3 248.1,238.9 295.4,256.6 
			308.6,260.1 310.4,259.5 318.4,254.6 335.1,213.7 327.7,203 322,192.4 302.1,188.6 280.5,176.3 266.9,148.9 250.9,157.3 
			232.1,160.2 		"/>
		<polygon id="XMLID_195_" class="st31" points="324.9,239.7 333.7,241.3 343,235.1 344.6,228.5 342.5,219.5 335.1,213.7 		"/>
		<path id="XMLID_194_" class="st40" d="M206.3,196.6c0,0-4,14,7.8,19.2c11.8,5.2,86.4,32.3,86.4,32.3s16,3.9,22.2-4.1l-4.4,10.7
			l-11.9,5.3l-11.1-3.3l-87.8-33.2l-3.8-3.4l-3.2-7.1l-0.2-4.9L206.3,196.6z"/>
		<path id="XMLID_193_" class="st40" d="M261.2,152.6c0,0,8.7,39.4,54.2,46.8c0,0,3.5,13.4,14.8,20.5l5.2-9.2L322,192.4l-18.5-1.6
			L285.1,179l-11.9-17.2l-4.7-12.6L261.2,152.6z"/>
		<path id="XMLID_192_" class="st40" d="M216.4,164.9c0,0,29.3,6.4,54.7-6.3l-4.1-9.6l-13.5,7.8L234,160l-12.4-0.8L216.4,164.9z"/>
		<path id="XMLID_191_" class="st41" d="M240.4,195.1c0,0,2.6-8.2,10.2-13.9l-5.4,21.7l-3.4-2.9L240.4,195.1z"/>
		
			<ellipse id="XMLID_190_" transform="matrix(0.976 0.2179 -0.2179 0.976 51.6784 -56.0392)" class="st41" cx="279.9" cy="206.3" rx="5.8" ry="3.1"/>
		
			<ellipse id="XMLID_189_" transform="matrix(0.9603 0.2788 -0.2788 0.9603 61.3983 -54.5842)" class="st41" cx="222.6" cy="188.6" rx="5.8" ry="3.1"/>
		<path id="XMLID_188_" class="st40" d="M242.4,220.5c0,0,31.2,21.3,45.3-4.8l-7.2,3.9l-16.5,2.9l-14.2-1.3L242.4,220.5z"/>
		<g id="XMLID_187_">
			<path id="XMLID_285_" class="st11" d="M354.5,219.2c0.9,0,1.9,0,2.9-0.1c1.4-0.1,2.5-1.3,2.4-2.7c-0.1-1.4-1.3-2.5-2.7-2.4
				c-24.7,1.7-32.2-21.4-32.5-22.4l-0.6-1.8l-1.9,0c-39.6-0.2-52.5-41.2-52.7-41.7l-1-3.4l-2.9,2c-29,20.4-53.6,6.3-53.8,6.1
				c-1.2-0.7-2.8-0.3-3.5,0.9c-0.7,1.2-0.3,2.8,0.9,3.5c1.1,0.6,26.2,15.1,56.6-4.5c1.6,4.1,5.1,11.7,11.1,19.3
				c11.3,14.3,26.3,22.2,43.5,22.8C322.7,200.8,332.1,219.2,354.5,219.2z"/>
		</g>
		<g id="XMLID_186_">
			<path id="XMLID_284_" class="st11" d="M330.7,243.5c2.5,0,5.1-0.6,7.4-1.8c3.9-2,6.9-5.4,8.3-9.6c1.4-4.2,1.1-8.7-0.9-12.6
				c-2-3.9-5.4-6.9-9.6-8.3c-1.3-0.4-2.8,0.3-3.2,1.6c-0.4,1.3,0.3,2.8,1.6,3.2c2.9,1,5.2,3,6.6,5.7c1.4,2.7,1.6,5.8,0.6,8.7
				c-2,5.9-8.4,9.2-14.4,7.2c-1.3-0.4-2.8,0.3-3.2,1.6c-0.4,1.3,0.3,2.8,1.6,3.2C327.2,243.2,329,243.5,330.7,243.5z"/>
		</g>
		<g id="XMLID_185_">
			<path id="XMLID_283_" class="st11" d="M338.7,230.3c0.1,0,0.1,0,0.2,0c0.9-0.1,1.6-0.9,1.5-1.9c-0.7-6.4-7.5-9-7.8-9.1
				c-0.9-0.3-1.9,0.1-2.2,1c-0.3,0.9,0.1,1.8,1,2.2c0.1,0,5.1,2,5.6,6.3C337.1,229.6,337.8,230.3,338.7,230.3z"/>
		</g>
	</g>
	<g id="XMLID_182_">
		<path id="XMLID_183_" class="st11" d="M306.9,262.4c2.5,0,5-0.5,7.4-1.6c4.3-2,7.6-5.5,9.3-10l14.6-39.1c0.5-1.3-0.2-2.8-1.5-3.3
			c-1.3-0.5-2.8,0.2-3.3,1.5l-14.6,39.1c-1.2,3.2-3.5,5.7-6.6,7.1c-3.1,1.4-6.5,1.5-9.7,0.3l-91.3-34.2c-3.2-1.2-5.7-3.5-7.1-6.6
			c-1.4-3.1-1.5-6.5-0.3-9.7l17.5-46.7c0.5-1.3-0.2-2.8-1.5-3.3c-1.3-0.5-2.8,0.2-3.3,1.5l-17.5,46.7c-1.7,4.4-1.5,9.3,0.5,13.6
			c2,4.3,5.5,7.6,10,9.3l91.3,34.2C302.6,262.1,304.8,262.4,306.9,262.4z"/>
	</g>
</g>
<g id="Face">
	<g id="XMLID_181_">
		<circle id="XMLID_373_" class="st11" cx="232.1" cy="179.4" r="5.6"/>
	</g>
	<g id="XMLID_180_">
		<circle id="XMLID_371_" class="st11" cx="276.4" cy="193.8" r="5.6"/>
	</g>
	<g id="XMLID_179_">
		<path id="XMLID_220_" class="st11" d="M246.7,206.1c3.5,0,6.8-2.3,8.2-6c0.5-1.3-0.2-2.8-1.5-3.3c-1.3-0.5-2.8,0.2-3.3,1.5
			c-0.7,2-2.6,3.1-4.2,2.5c-0.7-0.3-1.3-0.9-1.6-1.7c-0.4-0.9-0.3-2,0-3c0.5-1.3-0.2-2.8-1.5-3.3c-1.3-0.5-2.8,0.2-3.3,1.5
			c-0.8,2.2-0.8,4.5,0,6.6c0.9,2.2,2.5,3.8,4.6,4.6C244.9,205.9,245.8,206.1,246.7,206.1z"/>
	</g>
	<g id="XMLID_221_">
		<path id="XMLID_222_" class="st11" d="M266.2,225.2c8,0,16.1-1.9,21.1-8c0.9-1.1,0.7-2.7-0.4-3.6c-1.1-0.9-2.7-0.7-3.6,0.4
			c-9.9,12.3-38.5,2.4-38.8,2.3c-1.3-0.5-2.8,0.2-3.3,1.6c-0.5,1.3,0.2,2.8,1.6,3.3C243.6,221.3,254.8,225.2,266.2,225.2z"/>
	</g>
</g>
<g id="Ground">
	<g id="XMLID_223_">
		<path id="XMLID_225_" class="st11" d="M545.7,702.5H421.1c-1.4,0-2.6-1.2-2.6-2.6s1.2-2.6,2.6-2.6h124.6c1.4,0,2.6,1.2,2.6,2.6
			S547.1,702.5,545.7,702.5z"/>
	</g>
	<g id="XMLID_224_">
		<path id="XMLID_247_" class="st11" d="M394.3,702.5H226.6c-1.4,0-2.6-1.2-2.6-2.6s1.2-2.6,2.6-2.6h167.7c1.4,0,2.6,1.2,2.6,2.6
			S395.7,702.5,394.3,702.5z"/>
	</g>
	<g id="XMLID_278_">
		<path id="XMLID_279_" class="st11" d="M217.5,702.5H69.3c-1.4,0-2.6-1.2-2.6-2.6s1.2-2.6,2.6-2.6h148.2c1.4,0,2.6,1.2,2.6,2.6
			S218.9,702.5,217.5,702.5z"/>
	</g>
	<g id="XMLID_280_">
		<path id="XMLID_281_" class="st11" d="M61.1,702.3H49.4c-1.4,0-2.6-1.2-2.6-2.6s1.2-2.6,2.6-2.6h11.7c1.4,0,2.6,1.2,2.6,2.6
			S62.6,702.3,61.1,702.3z"/>
	</g>
	<g id="XMLID_282_">
		<path id="XMLID_294_" class="st11" d="M412.3,702.3h-10.4c-1.4,0-2.6-1.2-2.6-2.6s1.2-2.6,2.6-2.6h10.4c1.4,0,2.6,1.2,2.6,2.6
			S413.7,702.3,412.3,702.3z"/>
	</g>
	<g id="XMLID_295_">
		<path id="XMLID_296_" class="st11" d="M569.2,702.8h-15.5c-1.4,0-2.6-1.2-2.6-2.6s1.2-2.6,2.6-2.6h15.5c1.4,0,2.6,1.2,2.6,2.6
			S570.6,702.8,569.2,702.8z"/>
	</g>
</g>
</svg>
